# xmcd CD database file
#
# Track frame offsets:
#	150
#	8278
#	20710
#	30605
#	41115
#	53815
#	61948
#	71471
#	82457
#	97603
#	105395
#	113959
#	124269
#	129796
#
# Disc length: 1847 seconds
#
# Revision: 6
# Processed by: cddbd v1.5.2PL0 Copyright (c) Steve Scherf et al.
# Submitted via: CDex 1.70beta2
#
DISCID=ad07350e
DTITLE=Chet Atkins - Christmas With Chet Atkins
DYEAR=1961
DGENRE=Christmas
TTITLE0=Jingle Bell Rock
TTITLE1=Winter Wonderland
TTITLE2=Jolly Old St. Nicholas
TTITLE3=White Christmas
TTITLE4=Blue Christmas
TTITLE5=Jingle Bells
TTITLE6=Silver Bells
TTITLE7=Little Drummer Boy
TTITLE8=Medley: The Coventry Carol, God Rest Ye Merry Gentlemen
TTITLE9=The First Noel
TTITLE10=Hark! The Herald Angels Sing
TTITLE11=O Come, All Ye Faithful
TTITLE12=Deck The Halls
TTITLE13=Silent Night
EXTD=YEAR: 1961
EXTT0=
EXTT1=
EXTT2=
EXTT3=
EXTT4=
EXTT5=
EXTT6=
EXTT7=
EXTT8=
EXTT9=
EXTT10=
EXTT11=
EXTT12=
EXTT13=
PLAYORDER=
